<?xml version="1.0" encoding="UTF-8" standalone="no"?>
<!DOCTYPE svg PUBLIC "-//W3C//DTD SVG 1.1//EN" "http://www.w3.org/Graphics/SVG/1.1/DTD/svg11.dtd">
<svg width="100%" height="100%" viewBox="0 0 2048 2048" version="1.1" xmlns="http://www.w3.org/2000/svg" xmlns:xlink="http://www.w3.org/1999/xlink" xml:space="preserve" xmlns:serif="http://www.serif.com/" style="fill-rule:evenodd;clip-rule:evenodd;stroke-linejoin:round;stroke-miterlimit:2;">
    <circle cx="1024" cy="1024" r="1024" style="fill:white;"/>
    <g transform="matrix(0.532739,0,0,0.240385,368.717,777.846)">
        <path d="M952.794,2048L952.794,2047.99C952.794,1939.36 933.322,1835.18 898.662,1758.37C864.002,1681.55 816.993,1638.4 767.976,1638.4L767.973,1638.4C767.904,1638.4 767.836,1638.4 767.767,1638.4L51.978,1638.4C134.046,931.747 423.495,409.6 767.973,409.6L952.794,409.601L952.794,-0C952.794,-904.863 1283.78,-1638.4 1692.08,-1638.4L2154.14,-1638.4C2227.66,-1638.4 2298.18,-1573.67 2350.17,-1458.45C2402.16,-1343.23 2431.37,-1186.95 2431.37,-1024L2431.37,-1024C2431.37,-861.048 2402.16,-704.774 2350.17,-589.552C2298.18,-474.331 2227.66,-409.6 2154.14,-409.6L1692.08,-409.6C1590.01,-409.6 1507.26,-226.216 1507.26,-0L1507.26,409.602L1969.31,409.602C1969.31,1018.47 1769.49,1523.91 1507.26,1621.41L1507.26,2048C1507.26,2952.86 1176.27,3686.4 767.973,3686.4C359.677,3686.4 28.687,2952.86 28.687,2048L583.151,2048C583.151,2274.22 665.899,2457.6 767.973,2457.6C870.047,2457.6 952.794,2274.22 952.794,2048Z" style="fill:url(#_Linear1);"/>
    </g>
    <defs>
        <linearGradient id="_Linear1" x1="0" y1="0" x2="1" y2="0" gradientUnits="userSpaceOnUse" gradientTransform="matrix(2402.68,0,0,5324.8,28.6871,1024)"><stop offset="0" style="stop-color:rgb(192,87,187);stop-opacity:1"/><stop offset="1" style="stop-color:rgb(194,68,84);stop-opacity:1"/></linearGradient>
    </defs>
</svg>
