<svg width="2048" height="2048" viewBox="0 0 2048 2048" fill="none" xmlns="http://www.w3.org/2000/svg">
<rect width="2048" height="2048" rx="1024" fill="url(#paint0_linear_497_2)"/>
<path d="M654.04 762.296L465.283 951.053" stroke="#4B7FFF" stroke-width="118.51" stroke-linecap="round" stroke-linejoin="round"/>
<path d="M913.19 1173.54L648.385 1438.34" stroke="#4B7FFF" stroke-width="118.51" stroke-linecap="round" stroke-linejoin="round"/>
<path d="M730.508 1021.03L540.075 1211.46" stroke="#4B7FFF" stroke-width="118.51" stroke-linecap="round" stroke-linejoin="round"/>
<path d="M1066.33 1355.59L906.485 1515.44" stroke="#4B7FFF" stroke-width="118.51" stroke-linecap="round" stroke-linejoin="round"/>
<path d="M1325.9 1431.22L1102.37 1654.75" stroke="#4B7FFF" stroke-width="118.51" stroke-linecap="round" stroke-linejoin="round"/>
<path d="M603.97 894.07L520.172 977.869L521.219 978.917C544.264 955.872 581.973 955.872 605.018 978.917C628.063 1001.96 628.063 1039.67 605.018 1062.72L606.065 1063.76L689.864 979.964L603.97 894.07Z" fill="#4B7FFF"/>
<path d="M734.906 1092.46L651.108 1176.26L655.088 1180.24C678.133 1157.2 715.842 1157.2 738.887 1180.24C761.932 1203.29 761.932 1241 738.887 1264.04L745.591 1270.75L829.39 1186.95L734.906 1092.46Z" fill="#4B7FFF"/>
<path d="M893.706 1251.26L809.907 1335.06L822.686 1347.84C845.731 1324.8 883.44 1324.8 906.485 1347.84C929.53 1370.89 929.53 1408.6 906.485 1431.64L916.331 1441.49L1000.13 1357.69L893.706 1251.26Z" fill="#4B7FFF"/>
<path d="M1102.57 1392.67L1018.78 1476.47L1024.01 1481.71C1047.06 1458.67 1084.77 1458.67 1107.81 1481.71C1130.86 1504.75 1130.86 1542.46 1107.81 1565.51L1111.16 1568.86L1194.96 1485.06L1102.57 1392.67Z" fill="#4B7FFF"/>
<path d="M1430.86 485.341L708.51 727.939C637.281 751.822 603.762 825.565 620.941 890.509C629.53 922.981 653.622 949.168 684.418 961.947L951.737 1074.24C978.971 1085.55 1000.76 1107.34 1012.07 1134.57L1123.94 1400.22C1138.61 1434.99 1169.4 1460.76 1206.69 1467.46C1268.71 1478.78 1336.16 1444.84 1358.58 1377.59L1601.18 655.243C1636.58 549.447 1536.44 449.307 1430.65 484.712L1431.07 485.132L1430.86 485.341Z" stroke="#4B7FFF" stroke-width="118.51" stroke-miterlimit="10"/>
<path d="M972.76 1023.44L1213.01 852.547C1227.25 842.455 1243.03 858.237 1232.94 872.482L1062.05 1112.73C1056.34 1120.93 1045.27 1122.45 1038.83 1116.02L969.264 1046.45C963.035 1040.22 964.561 1029.15 972.553 1023.23L972.76 1023.44Z" fill="#4B7FFF"/>
<path d="M795.242 1626.68L749.362 1672.56" stroke="#4B7FFF" stroke-width="118.51" stroke-linecap="round" stroke-linejoin="round"/>
<path d="M355.757 1060.48L298.099 1118.14" stroke="#4B7FFF" stroke-width="118.51" stroke-linecap="round" stroke-linejoin="round"/>
<path d="M1085.4 1272.42L808.44 995.467L715.004 1088.9L991.96 1365.86L1085.4 1272.42Z" fill="#4B7FFF"/>
<defs>
<linearGradient id="paint0_linear_497_2" x1="2048" y1="1024" x2="0" y2="1024" gradientUnits="userSpaceOnUse">
<stop offset="1" stop-color="white"/>
</linearGradient>
</defs>
</svg>
