<?xml version="1.0" encoding="UTF-8" standalone="no"?>
<!DOCTYPE svg PUBLIC "-//W3C//DTD SVG 1.1//EN" "http://www.w3.org/Graphics/SVG/1.1/DTD/svg11.dtd">
<svg width="100%" height="100%" viewBox="0 0 370 104" version="1.1" xmlns="http://www.w3.org/2000/svg" xmlns:xlink="http://www.w3.org/1999/xlink" xml:space="preserve" xmlns:serif="http://www.serif.com/" style="fill-rule:evenodd;clip-rule:evenodd;stroke-linejoin:round;stroke-miterlimit:2;">
    <g transform="matrix(1,0,0,1,-1422,-1509)">
        <g transform="matrix(4.16667,0,0,4.16667,0,0)">
            <path d="M419.392,374.552C417.568,370.381 415.879,366.518 414,362.22C417.069,361.835 418.703,363.335 419.731,364.939C423.094,370.184 426.518,375.444 429.238,381.03C431.343,385.355 429,387.622 424.091,386.706C420,385.944 415.919,385.086 411.799,384.533C409.792,384.264 407.701,384.691 405.655,384.612C404.718,384.576 403.799,384.079 402.871,383.791C403.37,382.741 403.614,381.131 404.423,380.761C405.956,380.061 407.81,380.041 409.539,379.802C410.448,379.677 411.377,379.688 413.526,379.57C411.588,378.401 410.675,377.524 409.61,377.261C403.093,375.649 396.615,373.587 389.989,372.778C375.104,370.961 360.226,370.865 345.806,376.074C345.06,376.343 344.228,376.649 343.481,376.561C342.782,376.479 341.828,376.042 341.567,375.488C341.311,374.944 341.535,373.744 341.988,373.377C343.335,372.286 344.787,371.08 346.399,370.61C350.998,369.268 355.641,367.884 360.365,367.205C375.923,364.97 391.403,365.64 406.615,369.743C410.755,370.86 414.685,372.754 419.392,374.552Z" style="fill:url(#_Linear1);fill-rule:nonzero;"/>
        </g>
    </g>
    <defs>
        <linearGradient id="_Linear1" x1="0" y1="0" x2="1" y2="0" gradientUnits="userSpaceOnUse" gradientTransform="matrix(88.5529,0,0,24.7482,341.459,374.533)"><stop offset="0" style="stop-color:rgb(192,87,187);stop-opacity:1"/><stop offset="1" style="stop-color:rgb(194,68,84);stop-opacity:1"/></linearGradient>
    </defs>
</svg>
