<?xml version="1.0" encoding="UTF-8" standalone="no"?>
<!DOCTYPE svg PUBLIC "-//W3C//DTD SVG 1.1//EN" "http://www.w3.org/Graphics/SVG/1.1/DTD/svg11.dtd">
<svg width="100%" height="100%" viewBox="0 0 161 286" version="1.1" xmlns="http://www.w3.org/2000/svg" xmlns:xlink="http://www.w3.org/1999/xlink" xml:space="preserve" xmlns:serif="http://www.serif.com/" style="fill-rule:evenodd;clip-rule:evenodd;stroke-linejoin:round;stroke-miterlimit:2;">
    <g transform="matrix(1,0,0,1,-1407,-758)">
        <g transform="matrix(4.16667,0,0,4.16667,0,0)">
            <path d="M341.844,250.505C340.272,248.271 341.548,246.374 342.306,244.591C347.516,232.342 352.802,220.126 358.079,207.907C359.669,204.226 361.321,200.573 362.912,196.892C363.269,196.067 363.488,195.182 364.088,193.364C362.138,194.774 361.001,195.554 359.911,196.394C354.443,200.603 349.011,204.858 343.51,209.023C342.388,209.872 341.091,210.645 339.754,211.013C338.341,211.401 337.269,209.845 338.042,208.574C338.692,207.505 339.619,206.548 340.589,205.739C349.464,198.341 358.368,190.978 367.287,183.633C368.013,183.036 368.859,182.467 369.744,182.207C371.559,181.672 373.257,182.823 372.983,184.604C372.006,190.937 374.147,196.956 374.621,203.135C374.903,206.809 375.544,210.455 375.961,214.12C376.087,215.226 376.299,216.472 375.923,217.441C375.586,218.309 374.584,219.246 373.705,219.465C373.101,219.615 371.963,218.746 371.504,218.045C371.016,217.3 370.964,216.224 370.863,215.277C370.322,210.173 369.83,205.063 369.309,199.956C369.219,199.077 369.074,198.203 368.117,197.19C367.445,198.547 366.734,199.886 366.107,201.263C359.327,216.151 352.588,231.057 345.753,245.92C344.946,247.674 344.488,249.953 341.844,250.505Z" style="fill:url(#_Linear1);fill-rule:nonzero;"/>
        </g>
    </g>
    <defs>
        <linearGradient id="_Linear1" x1="0" y1="0" x2="1" y2="0" gradientUnits="userSpaceOnUse" gradientTransform="matrix(55.0154,-70.0808,70.0808,55.0154,330.968,250)"><stop offset="0" style="stop-color:rgb(192,87,187);stop-opacity:1"/><stop offset="1" style="stop-color:rgb(194,68,84);stop-opacity:1"/></linearGradient>
    </defs>
</svg>
