<?xml version="1.0" encoding="UTF-8" standalone="no"?>
<!DOCTYPE svg PUBLIC "-//W3C//DTD SVG 1.1//EN" "http://www.w3.org/Graphics/SVG/1.1/DTD/svg11.dtd">
<svg width="100%" height="100%" viewBox="0 0 384 274" version="1.1" xmlns="http://www.w3.org/2000/svg" xmlns:xlink="http://www.w3.org/1999/xlink" xml:space="preserve" xmlns:serif="http://www.serif.com/" style="fill-rule:evenodd;clip-rule:evenodd;stroke-linejoin:round;stroke-miterlimit:2;">
    <g transform="matrix(1,0,0,1,-26,-611)">
        <g transform="matrix(4.16667,0,0,4.16667,0,0)">
            <g transform="matrix(-0.0448993,0.998992,0.998992,0.0448993,-125.563,120.046)">
                <path d="M41.049,155.647C45.339,157.814 51.419,157.667 55.742,155.064C57.338,154.103 58.824,152.741 59.938,151.246C61.644,148.958 61.472,146.04 59.783,144.141C57.949,142.079 55.618,141.085 52.893,141.965C51.554,142.398 50.228,143.136 49.141,144.032C45.373,147.139 42.541,150.939 41.049,155.647ZM39.539,161.925C38.528,164.753 39.213,168.047 40.103,171.271C42.133,178.629 46.362,184.554 52.274,189.312C59.189,194.878 67.074,198.728 75.313,202.216C72.036,197.374 69.239,192.385 67.425,185.819C69.156,186.243 70.275,186.206 70.899,186.743C71.842,187.554 72.422,188.78 73.187,189.806C75.666,193.129 78.024,196.555 80.682,199.729C84.17,203.894 84.161,206.048 79.919,209.247C73.009,214.459 66.049,219.607 59.053,224.704C57.421,225.893 55.688,227.339 53.359,226.024C52.558,223.644 54.299,222.441 55.7,221.255C59.863,217.734 64.123,214.33 68.348,210.884C69.579,209.879 70.819,208.886 72.461,207.56C71.193,206.973 70.316,206.449 69.369,206.146C61.648,203.678 54.576,199.958 48.249,194.924C39.045,187.601 33.394,178.221 32.475,166.313C32.279,163.772 32.447,161.202 32.447,158.079C27.734,155.366 23.713,151.239 21.736,145.62C20.81,142.986 20.389,140.008 20.507,137.218C20.631,134.306 21.985,133.556 25.605,133.293C22.347,136.251 23.127,139.417 24.631,142.614C26.714,147.044 29.488,150.864 34.256,153.447C35.032,152.117 35.76,150.941 36.421,149.728C38.754,145.446 41.751,141.725 45.682,138.809C48.457,136.75 51.504,135.52 55.061,135.686C64.24,136.117 69.469,145.582 64.734,153.454C61.512,158.812 56.425,161.364 50.367,161.872C46.897,162.163 43.382,161.925 39.539,161.925Z" style="fill:url(#_Linear1);fill-rule:nonzero;"/>
            </g>
        </g>
    </g>
    <defs>
        <linearGradient id="_Linear1" x1="0" y1="0" x2="1" y2="0" gradientUnits="userSpaceOnUse" gradientTransform="matrix(62.7189,93.2525,-93.2525,62.7189,20.4876,133.293)"><stop offset="0" style="stop-color:rgb(192,87,187);stop-opacity:1"/><stop offset="1" style="stop-color:rgb(194,68,84);stop-opacity:1"/></linearGradient>
    </defs>
</svg>
