<?xml version="1.0" encoding="UTF-8" standalone="no"?>
<!-- Created with Inkscape (http://www.inkscape.org/) -->

<svg
   version="1.1"
   id="svg2"
   width="377.953"
   height="99.478996"
   viewBox="0 0 377.953 99.478996"
   sodipodi:docname="BVCD-Logo.svg"
   inkscape:version="1.2.2 (732a01da63, 2022-12-09)"
   xmlns:inkscape="http://www.inkscape.org/namespaces/inkscape"
   xmlns:sodipodi="http://sodipodi.sourceforge.net/DTD/sodipodi-0.dtd"
   xmlns="http://www.w3.org/2000/svg"
   xmlns:svg="http://www.w3.org/2000/svg">
  <defs
     id="defs6">
    <clipPath
       clipPathUnits="userSpaceOnUse"
       id="clipPath18">
      <path
         d="M 0,170.08 H 396.85 V 0 H 0 Z"
         id="path16" />
    </clipPath>
  </defs>
  <sodipodi:namedview
     id="namedview4"
     pagecolor="#ffffff"
     bordercolor="#000000"
     borderopacity="0.25"
     inkscape:showpageshadow="2"
     inkscape:pageopacity="0.0"
     inkscape:pagecheckerboard="0"
     inkscape:deskcolor="#d1d1d1"
     showgrid="false"
     inkscape:zoom="2.4625175"
     inkscape:cx="175.63327"
     inkscape:cy="113.29869"
     inkscape:window-width="1920"
     inkscape:window-height="1009"
     inkscape:window-x="-8"
     inkscape:window-y="-8"
     inkscape:window-maximized="1"
     inkscape:current-layer="g10">
    <inkscape:page
       x="0"
       y="0"
       id="page8"
       width="377.953"
       height="99.478996" />
  </sodipodi:namedview>
  <g
     id="g10"
     inkscape:groupmode="layer"
     inkscape:label="Page 1"
     transform="matrix(1.3333333,0,0,-1.3333333,0,226.77333)">
    <g
       id="g12"
       transform="translate(-56.692791,38.776602)">
      <g
         id="g14"
         clip-path="url(#clipPath18)">
        <g
           id="g20"
           transform="translate(64.0068,62.9291)">
          <path
             d="m 0,0 h 37.519 1.828 c 2.389,0 4.473,0.217 6.253,0.652 1.78,0.435 2.999,1.172 3.657,2.212 0.658,1.038 1.061,2.126 1.207,3.262 0.146,1.135 0.22,2.476 0.22,4.023 0,1.547 -0.099,2.997 -0.293,4.35 -0.195,1.353 -0.598,2.525 -1.207,3.516 -0.61,0.99 -2,1.716 -4.169,2.175 -2.17,0.459 -4.889,0.689 -8.154,0.689 H 34.74 0 Z m 0,27.114 h 34.228 2.779 c 3.705,0 6.18,0.253 7.423,0.761 1.244,0.508 2.121,1.135 2.633,1.885 0.512,0.749 0.816,1.522 0.914,2.32 0.097,0.798 0.146,1.727 0.146,2.791 0,1.595 -0.061,2.911 -0.182,3.951 -0.123,1.039 -0.476,2.005 -1.061,2.9 -0.585,0.894 -1.78,1.534 -3.584,1.921 -1.804,0.387 -4.729,0.58 -8.776,0.58 H 0 Z m 36.861,23.344 h 2.998 c 3.218,0 5.912,-0.279 8.082,-0.834 2.169,-0.556 3.814,-1.583 4.936,-3.081 1.122,-1.499 1.84,-3.19 2.158,-5.075 0.317,-1.885 0.475,-3.891 0.475,-6.017 0,-1.015 -0.049,-1.97 -0.146,-2.864 -0.098,-0.895 -0.329,-1.884 -0.695,-2.972 -0.365,-1.087 -1.232,-2.006 -2.596,-2.755 -1.366,-0.75 -3.194,-1.39 -5.485,-1.921 2.145,-0.435 4.022,-0.967 5.631,-1.595 1.609,-0.629 2.803,-1.499 3.584,-2.61 0.779,-1.112 1.304,-2.586 1.572,-4.422 0.268,-1.838 0.403,-3.795 0.403,-5.873 0,-2.078 -0.099,-3.963 -0.293,-5.654 C 57.29,3.092 56.681,1.256 55.657,-0.725 54.633,-2.707 52.499,-4.121 49.257,-4.966 46.014,-5.812 41.955,-6.235 37.08,-6.235 H -7.314 v 56.693 z"
             style="fill:#1d1d1b;fill-opacity:1;fill-rule:nonzero;stroke:none"
             id="path22" />
        </g>
        <g
           id="g24"
           transform="translate(130.5973,113.3814)">
          <path
             d="M 0,0 27.19,-49.979 55.164,0.001 63.346,0.006 31.899,-56.687 H 22.535 L -8.4,0.006 Z"
             style="fill:#1d1d1b;fill-opacity:1;fill-rule:nonzero;stroke:none"
             id="path26" />
        </g>
        <g
           id="g28"
           transform="translate(261.9352,94.8278)">
          <path
             d="m 0,0 h -6.509 c 0,2.61 -0.159,4.7 -0.476,6.271 -0.317,1.57 -0.927,2.803 -1.828,3.697 -0.903,0.894 -2.073,1.51 -3.511,1.849 -1.438,0.338 -3.23,0.507 -5.375,0.507 h -24.428 -2.706 c -3.706,0 -6.351,-0.229 -7.935,-0.688 -1.585,-0.46 -2.828,-1.149 -3.73,-2.066 -0.903,-0.919 -1.609,-2.212 -2.121,-3.879 -0.512,-1.667 -0.768,-4 -0.768,-6.996 v -2.32 -10.947 c 0,-4.254 0.147,-7.358 0.439,-9.316 0.293,-1.957 1.108,-3.601 2.45,-4.93 1.34,-1.33 3.145,-2.174 5.412,-2.537 2.268,-0.363 4.864,-0.544 7.789,-0.544 h 2.121 22.746 c 2.779,0 5.107,0.254 6.984,0.761 1.877,0.508 3.193,1.378 3.949,2.61 0.756,1.233 1.219,2.501 1.39,3.806 0.17,1.305 0.256,2.755 0.256,4.35 v 1.957 h 6.948 v -2.609 c 0,-2.61 -0.208,-5.003 -0.622,-7.178 -0.415,-2.174 -1.402,-4.095 -2.962,-5.763 -1.561,-1.668 -3.645,-2.78 -6.253,-3.335 -2.609,-0.556 -5.84,-0.834 -9.69,-0.834 h -24.428 -3.072 c -3.559,0 -6.644,0.278 -9.252,0.834 -2.609,0.555 -4.912,1.849 -6.911,3.879 -2,2.029 -3.279,4.531 -3.84,7.503 -0.561,2.973 -0.841,6.585 -0.841,10.839 v 12.107 c 0,3.915 0.22,7.213 0.659,9.896 0.438,2.682 1.693,5.049 3.766,7.104 2.072,2.054 4.535,3.323 7.387,3.806 2.853,0.483 6.838,0.725 11.958,0.725 h 24.134 c 3.705,0 7.07,-0.375 10.094,-1.123 3.022,-0.75 5.107,-2.03 6.253,-3.843 1.145,-1.812 1.852,-3.637 2.12,-5.473 C -0.135,6.282 0,3.576 0,0"
             style="fill:#1d1d1b;fill-opacity:1;fill-rule:nonzero;stroke:none"
             id="path30" />
        </g>
        <g
           id="g32"
           transform="translate(278.0646,62.9291)">
          <path
             d="m 0,0 h 34.813 2.413 c 3.608,0 6.667,0.35 9.179,1.051 2.51,0.7 4.315,1.994 5.412,3.879 1.097,1.885 1.853,4.337 2.267,7.358 0.414,3.02 0.622,6.319 0.622,9.896 0,3.576 -0.208,6.887 -0.622,9.932 -0.414,3.045 -1.134,5.461 -2.158,7.25 -1.023,1.787 -2.901,3.045 -5.631,3.77 -2.731,0.725 -5.705,1.087 -8.922,1.087 h -2.56 L 0,44.223 Z m 35.544,50.458 c 5.705,0 10.47,-0.471 14.298,-1.414 3.828,-0.942 6.546,-2.779 8.155,-5.509 1.609,-2.732 2.694,-5.849 3.255,-9.353 0.56,-3.504 0.841,-7.285 0.841,-11.345 0,-4.399 -0.281,-8.374 -0.841,-11.926 C 60.691,7.358 59.581,4.12 57.924,1.196 56.266,-1.729 53.34,-3.698 49.148,-4.713 44.953,-5.727 40.346,-6.235 35.324,-6.235 H -7.387 v 56.693 z"
             style="fill:#1d1d1b;fill-opacity:1;fill-rule:nonzero;stroke:none"
             id="path34" />
        </g>
        <g
           id="g36"
           transform="translate(189.5667,131.3034)">
          <path
             d="m 0,0 -31.833,-57.308 -30.864,57.3 z"
             style="fill:#87bd25;fill-opacity:1;fill-rule:nonzero;stroke:none"
             id="path38" />
        </g>
      </g>
    </g>
  </g>
</svg>
