<?xml version="1.0" encoding="utf-8"?>
<!-- Generator: Adobe Illustrator 26.3.1, SVG Export Plug-In . SVG Version: 6.00 Build 0)  -->
<svg version="1.1" xmlns="http://www.w3.org/2000/svg" xmlns:xlink="http://www.w3.org/1999/xlink" x="0px" y="0px"
	 viewBox="0 0 190.4 213.4" style="enable-background:new 0 0 190.4 213.4;" xml:space="preserve">
<style type="text/css">
	.st0{fill:#383B3F;}
	.st1{fill:#EB690B;}
</style>
<g id="Ebene_1">
	<g>
		<path class="st0" d="M150.4,205.6v-26.2h17.8c4.6,0,6.8,1.4,6.8,7.9v10.5c0,6.5-2.3,7.8-6.8,7.8H150.4z M143.6,213.4h25.5
			c9.8,0,14-5,14-15.5v-10.7c0-10.5-4.2-15.7-14-15.7h-25.5c-1,0-1.5,0.5-1.5,1.5v39C142.1,212.9,142.7,213.4,143.6,213.4
			 M127.7,187.5c0,6.1-2.8,7.1-9.1,7.1h-14.1v-15.2h14.1c6.5,0,9.1,1.1,9.1,7.3V187.5z M136,187.5v-0.9c0-10-4.6-15.1-16.8-15.1
			H97.6c-1,0-1.5,0.5-1.5,1.5v39c0,0.9,0.5,1.5,1.5,1.5h5.3c1,0,1.5-0.5,1.5-1.5v-9.5H119l6.5,10c0.4,0.7,1,0.9,1.8,0.9h6.2
			c1.2,0,1.7-0.8,0.9-1.8l-7.1-10C133.7,199.7,136,194.8,136,187.5 M56.2,213.4h32.5c0.9,0,1.5-0.5,1.5-1.5V207c0-1-0.5-1.5-1.5-1.5
			H62.9v-9.7h16.7c1,0,1.5-0.5,1.5-1.5V190c0-0.9-0.5-1.5-1.5-1.5H62.9v-9.1h25.8c0.9,0,1.5-0.5,1.5-1.5V173c0-0.9-0.5-1.5-1.5-1.5
			H56.2c-1,0-1.5,0.5-1.5,1.5v39C54.7,212.9,55.2,213.4,56.2,213.4 M8.7,213.4H14c1,0,1.5-0.5,1.5-1.5v-27.9l23,28.5
			c0.5,0.6,1.1,0.9,1.8,0.9h5.3c1,0,1.5-0.5,1.5-1.5v-39c0-0.9-0.5-1.5-1.5-1.5h-5.3c-1,0-1.5,0.5-1.5,1.5v28l-23-28.6
			c-0.5-0.6-1.1-0.9-1.8-0.9H8.7c-1,0-1.5,0.5-1.5,1.5v39C7.2,212.9,7.8,213.4,8.7,213.4"/>
		<path class="st1" d="M159.3,145.1v-15.4h14.1c6.2,0,8.7,1.1,8.7,7.1v1.2c0,5.7-2.6,7-8.7,7H159.3z M152.5,163.7h5.3
			c1,0,1.5-0.5,1.5-1.5v-9.3H174c12.1,0,16.3-5.2,16.3-14.8v-1.3c0-9.9-4.2-15-16.3-15h-21.6c-1,0-1.5,0.5-1.5,1.5v39
			C151,163.2,151.5,163.7,152.5,163.7 M95.9,163.7h5.2c0.9,0,1.5-0.5,1.5-1.5v-27.1l12.9,20.6c0.4,0.7,1,1,1.8,1h3.3
			c0.8,0,1.4-0.4,1.8-1l12.9-20.7v27.2c0,0.9,0.5,1.5,1.5,1.5h5.2c1,0,1.5-0.5,1.5-1.5v-39c0-0.9-0.5-1.5-1.5-1.5h-6.4
			c-0.8,0-1.4,0.4-1.8,1L119,147.1l-14.9-24.3c-0.4-0.7-1-1-1.8-1h-6.4c-1,0-1.5,0.5-1.5,1.5v39C94.4,163.2,95,163.7,95.9,163.7
			 M57.3,149.7l9-19.3l8.9,19.3H57.3z M82.7,163.7h6c1.1,0,1.6-0.7,1.1-1.7L71,122.9c-0.4-0.7-0.9-1.1-1.7-1.1H63
			c-0.8,0-1.4,0.4-1.7,1.1L42.4,162c-0.5,1,0,1.7,1.1,1.7h6c0.8,0,1.4-0.4,1.8-1.1l2.9-6.1h24l2.8,6.1
			C81.3,163.4,81.9,163.7,82.7,163.7 M14.1,163.7h13.2c9.9,0,14.1-5.6,14.1-14.4v-1.2c0-0.7-0.5-1.1-1.5-1.1h-5.3
			c-1,0-1.5,0.5-1.5,1.5v1.1c0,5.1-1.8,6.2-5.8,6.2H14.1c-4,0-5.8-1.1-5.8-6.2V136c0-5.2,1.7-6.3,5.8-6.3h13.2
			c4.1,0,5.8,1.1,5.8,6.3v1c0,0.6,0.5,1,1.5,1h5.3c1,0,1.5-0.5,1.5-1.5v-0.2c0-8.9-4.2-14.5-14.1-14.5H14.1
			c-9.9,0-14.1,5.6-14.1,14.5v13C0,158.2,4.2,163.7,14.1,163.7"/>
		<path class="st1" d="M94.3,58.2c13.9,0,25.1-11.2,25.1-25.1c0-3.5-1.6-8.1-3.9-13c-0.3-0.6-1-1-1.7-0.8c-0.7,0.2-1.2,0.8-1.2,1.5
			c-0.1,5.2-1.5,8.8-3.2,11.1c-0.2,0.3-0.6,0.4-0.9,0.2c-0.3-0.2-0.4-0.5-0.3-0.9c1.2-3.2,0.6-8-5.6-14.7c-5.8-6.3-7.2-11.2-7-14.8
			c0.1-0.7-0.3-1.4-1-1.7c-0.7-0.3-1.4-0.1-1.9,0.4c-5.9,6.2-13.2,16.2-11.1,26.4c0.1,0.4-0.1,0.9-0.6,1c-0.4,0.2-0.9,0-1.1-0.4
			c-1.5-2.4-2.9-6.1-2.4-10.9c0.1-0.8-0.4-1.5-1.1-1.7c-0.7-0.2-1.6,0.1-1.9,0.8c-2.7,4.9-5.2,11.1-5.2,17.4
			C69.2,47,80.4,58.2,94.3,58.2"/>
	</g>
	<polygon class="st1" points="94.3,63.4 61.1,52.6 56.7,58.2 83.5,66.9 63.5,68.8 67.8,73.2 94.3,70.3 	"/>
	<polygon class="st1" points="94.3,63.4 127.5,52.6 131.9,58.2 105,66.9 125.1,68.8 120.7,73.2 94.3,70.3 	"/>
	<path class="st0" d="M144.1,77.3h-33.4c-4.5,0-8.3,2.6-10.1,6.4H89.7c-1.8-3.8-5.7-6.4-10.1-6.4H46.2C40,77.3,35,82.3,35,88.5v0.3
		l3,15.9l0.4,0.6c6.4,9.1,12.5,9.1,17,9.1l24.2,0c6.2,0,11.3-5.1,11.3-11.3V90.2h8.7v12.9c0,6.2,5.1,11.3,11.3,11.3h9l14.8,0l0.4,0
		c4.4,0,10.6,0,17-9.1l0.4-0.6l3-15.9v-0.3C155.4,82.3,150.3,77.3,144.1,77.3z M84.2,103.2c0,2.6-2.1,4.6-4.6,4.6l-23.9,0l-0.4,0
		c-3.9,0-6.9,0-11.2-5.7l-2.6-13.8c0.1-2.4,2.2-4.4,4.6-4.4h33.4c2.6,0,4.6,2.1,4.6,4.6V103.2z M146.2,102
		c-4.2,5.7-7.3,5.7-11.2,5.7l-24.2,0c-2.6,0-4.6-2.1-4.6-4.6V88.5c0-2.6,2.1-4.6,4.6-4.6h33.4c2.5,0,4.5,1.9,4.6,4.4L146.2,102z"/>
	<g>
		<g>
			<path class="st0" d="M115.4,90.8c-0.6,0-1,0.1-1.3,0.2c-0.3,0.1-0.4,0.4-0.4,0.7c0,0.2,0,0.3,0.1,0.5c0.1,0.2,0.3,0.3,0.5,0.3
				c0.2,0.1-0.1,2.8,0.3,2.8H114c-0.8,0-0.5-0.2-1-0.5c-0.5-0.3-0.9-0.7-1.2-1.2c-0.3-0.5-0.4-1.2-0.4-2.1c0-0.9,0.2-1.6,0.6-2.1
				c0.4-0.5,0.9-0.9,1.5-1.1c0.6-0.2,1.5-0.3,2.6-0.3h5.4v2.8H115.4z"/>
		</g>
		<g>
			<path class="st0" d="M75.8,90.8c0.6,0,1,0.1,1.3,0.2c0.3,0.1,0.4,0.4,0.4,0.7c0,0.2,0,0.3-0.1,0.5c-0.1,0.2-0.3,0.3-0.5,0.3
				c-0.2,0.1,0.1,2.8-0.3,2.8h0.6c0.8,0,0.5-0.2,1-0.5c0.5-0.3,0.9-0.7,1.2-1.2c0.3-0.5,0.4-1.2,0.4-2.1c0-0.9-0.2-1.6-0.6-2.1
				c-0.4-0.5-0.9-0.9-1.5-1.1C77,88.1,76.2,88,75,88h-5.4v2.8H75.8z"/>
		</g>
	</g>
</g>
<g id="Ebene_2">
</g>
<g id="Ebene_3">
</g>
</svg>
