<svg width="1080" height="1080" viewBox="0 0 1080 1080" fill="none" xmlns="http://www.w3.org/2000/svg">
<path fill-rule="evenodd" clip-rule="evenodd" d="M415.384 747.69V747.688C415.384 725.655 406.631 704.525 391.052 688.946C375.472 673.365 354.342 664.613 332.309 664.613H332.307C332.276 664.613 332.246 664.613 332.215 664.613H10.4692C47.3586 521.287 177.465 415.383 332.307 415.383L415.384 415.384V332.307C415.384 148.779 564.161 0 747.691 0H955.386C988.433 0 1020.13 13.1288 1043.5 36.4982C1066.87 59.8676 1080 91.5649 1080 124.615C1080 157.666 1066.87 189.362 1043.5 212.731C1020.13 236.101 988.433 249.23 955.386 249.23H747.691C701.811 249.23 664.615 286.425 664.615 332.307V415.384H872.305C872.305 538.877 782.487 641.392 664.615 661.168V747.69C664.615 931.217 515.836 1080 332.307 1080C148.779 1080 0 931.217 0 747.69H249.23C249.23 793.573 286.425 830.767 332.307 830.767C378.189 830.767 415.384 793.573 415.384 747.69Z" fill="url(#paint0_linear_205_58)"/>
<defs>
<linearGradient id="paint0_linear_205_58" x1="-59.4" y1="539.998" x2="981" y2="539.998" gradientUnits="userSpaceOnUse">
<stop stop-color="#C057BB"/>
<stop offset="1" stop-color="#D23851"/>
</linearGradient>
</defs>
</svg>
