<svg width="602" height="601" viewBox="0 0 602 601" fill="none" xmlns="http://www.w3.org/2000/svg">
<path d="M389.115 210.702H455.151C493.581 210.702 524.732 241.872 524.732 280.327C524.732 318.782 493.581 349.952 455.151 349.952H387.413" fill="url(#paint0_linear_124_2)"/>
<path d="M389.115 210.702H455.151C493.581 210.702 524.732 241.872 524.732 280.327C524.732 318.782 493.581 349.952 455.151 349.952H387.413" stroke="white" stroke-width="10" stroke-miterlimit="10"/>
<path d="M526.734 5.01175H443.474C337.235 5.01175 251.121 91.1792 251.11 197.485V403.245C251.11 432.583 227.345 456.363 198.026 456.363C168.707 456.363 144.941 432.583 144.941 403.245C144.941 373.908 168.613 350.234 197.861 350.14L251.11 350.011V403.128V210.702H198.026L198.061 210.643C91.822 210.643 5.69678 296.823 5.69678 403.128C5.69678 509.433 91.822 595.612 198.061 595.612C304.299 595.612 390.425 509.433 390.425 403.128V197.332C390.425 168.018 414.178 144.25 443.474 144.25H526.734C565.164 144.25 596.315 113.079 596.315 74.6248C596.315 36.1702 565.164 5 526.734 5V5.01175Z" fill="url(#paint1_linear_124_2)" stroke="white" stroke-width="10" stroke-miterlimit="10"/>
<defs>
<linearGradient id="paint0_linear_124_2" x1="-46.7359" y1="280.327" x2="616.235" y2="280.327" gradientUnits="userSpaceOnUse">
<stop offset="0.25" stop-color="#B959A2"/>
<stop offset="0.75" stop-color="#D23851"/>
</linearGradient>
<linearGradient id="paint1_linear_124_2" x1="-96.632" y1="300.312" x2="727.317" y2="300.312" gradientUnits="userSpaceOnUse">
<stop offset="0.25" stop-color="#B959A2"/>
<stop offset="0.6" stop-color="#D23851"/>
</linearGradient>
</defs>
</svg>
