<svg width="110" height="42" viewBox="0 0 110 42" fill="none" xmlns="http://www.w3.org/2000/svg">
<g id="GDPR compliant - GDPR Copy 4" clip-path="url(#clip0_422_1062)">
<rect id="Rectangle " x="0.5" y="0.5" width="109" height="41" rx="5.5" fill="white" stroke="#EAEAEA"/>
<g id="Rectangle _2">
<path d="M41.5098 42H6C2.68629 42 1.44963e-07 39.3137 0 36V6C0 2.68629 2.68629 0 6 0H41.5098V42Z" fill="#2050E0"/>
<path d="M41.5098 42H6C2.68629 42 1.44963e-07 39.3137 0 36V6C0 2.68629 2.68629 0 6 0H41.5098V42Z" stroke="#E7E7E7"/>
</g>
<g id="Group">
<path id="Shape" d="M20.7547 6.2998L21.2254 7.84116H22.7488L21.5164 8.79374L21.9871 10.3351L20.7547 9.38191L19.5226 10.3351L19.9934 8.79374L18.7606 7.84116H20.284L20.7547 6.2998Z" fill="#F8D12E"/>
<path id="Shape_2" d="M20.7547 31.6641L21.2254 33.2059H22.7488L21.5164 34.1583L21.9871 35.6994L20.7547 34.747L19.5226 35.6994L19.9934 34.1583L18.7606 33.2059H20.284L20.7547 31.6641Z" fill="#F8D12E"/>
<path id="Shape_3" d="M27.0219 8.60547L27.4924 10.1468H29.016L27.7834 11.0998L28.2542 12.6408L27.0219 11.6878L25.7894 12.6408L26.2601 11.0998L25.0278 10.1468H26.5514L27.0219 8.60547Z" fill="#F8D12E"/>
<path id="Shape_4" d="M32.0886 25.2002L32.5591 26.7421H34.0825L32.8501 27.6946L33.3211 29.2355L32.0886 28.2833L30.8561 29.2355L31.3269 27.6946L30.0944 26.7421H31.6179L32.0886 25.2002Z" fill="#F8D12E"/>
<path id="Shape_5" d="M33.2891 18.9824L33.7596 20.5236H35.2831L34.0506 21.4761L34.5213 23.0177L33.2891 22.0656L32.0567 23.0177L32.5277 21.4761L31.2949 20.5236H32.8181L33.2891 18.9824Z" fill="#F8D12E"/>
<path id="Shape_6" d="M8.22081 18.9824L8.69131 20.5236H10.2146L8.98205 21.4761L9.45312 23.0177L8.22081 22.0656L6.98817 23.0177L7.459 21.4761L6.22644 20.5236H7.74998L8.22081 18.9824Z" fill="#F8D12E"/>
<path id="Shape_7" d="M9.25853 25.2002L9.72903 26.7421H11.2523L10.0201 27.6946L10.4905 29.2355L9.25853 28.2833L8.02597 29.2355L8.49671 27.6946L7.26416 26.7421H8.78778L9.25853 25.2002Z" fill="#F8D12E"/>
<path id="Shape_8" d="M32.0886 12.5996L32.5591 14.1415H34.0825L32.8501 15.094L33.3211 16.6349L32.0886 15.6827L30.8561 16.6349L31.3269 15.094L30.0944 14.1415H31.6179L32.0886 12.5996Z" fill="#F8D12E"/>
<path id="Shape_9" d="M9.77745 12.5996L10.2479 14.1415H11.7712L10.539 15.094L11.0094 16.6349L9.77745 15.6827L8.54489 16.6349L9.01564 15.094L7.78308 14.1415H9.3067L9.77745 12.5996Z" fill="#F8D12E"/>
<path id="Shape_10" d="M28.1614 30.5117L28.6319 32.0528H30.1554L28.9226 33.0059L29.3936 34.547L28.1614 33.5946L26.9287 34.547L27.3998 33.0059L26.1672 32.0528H27.6907L28.1614 30.5117Z" fill="#F8D12E"/>
<path id="Shape_11" d="M14.4877 8.60547L14.9581 10.1468H16.4817L15.2491 11.0998L15.7202 12.6408L14.4877 11.6878L13.2553 12.6408L13.7261 11.0998L12.4935 10.1468H14.0168L14.4877 8.60547Z" fill="#F8D12E"/>
<path id="Shape_12" d="M13.3481 30.5117L13.8188 32.0536H15.3423L14.1098 33.0058L14.5805 34.547L13.3481 33.5951L12.1159 34.547L12.5866 33.0058L11.3541 32.0536H12.8773L13.3481 30.5117Z" fill="#F8D12E"/>
</g>
<path id="GDPR" fill-rule="evenodd" clip-rule="evenodd" d="M48.7736 16.3753C48.7736 19.3406 51.0184 21.2009 53.7759 21.2009C55.5219 21.2009 56.8661 20.4875 57.8638 19.3826V15.7319H53.4018V17.7321H55.5219V18.5154C55.1478 18.8231 54.4965 19.0748 53.7759 19.0748C52.2655 19.0748 51.1985 17.8999 51.1985 16.3753C51.1985 14.8507 52.2655 13.6758 53.7759 13.6758C54.6489 13.6758 55.3556 14.1654 55.7298 14.7808L57.7252 13.7178C57.0462 12.5569 55.7991 11.5498 53.7759 11.5498C51.0184 11.5498 48.7736 13.4101 48.7736 16.3753ZM59.2633 21.033V11.7037H63.1433C66.0532 11.7037 68.1457 13.466 68.1457 16.3613C68.1457 19.2567 66.0532 21.033 63.1571 21.033H59.2633ZM61.6467 18.935H63.1433C64.7645 18.935 65.7068 17.7461 65.7068 16.3613C65.7068 14.9207 64.8477 13.8017 63.1571 13.8017H61.6467V18.935ZM69.3374 21.033V11.7037H73.9656C76.0441 11.7037 77.1804 13.1164 77.1804 14.8088C77.1804 16.4872 76.0441 17.872 73.9656 17.872H71.7208V21.033H69.3374ZM74.7554 14.7948C74.7554 14.1514 74.2843 13.7318 73.6469 13.7318H71.7208V15.8298H73.6469C74.2843 15.8298 74.7554 15.4242 74.7554 14.7948ZM83.4022 21.033L81.8502 17.872H80.6308V21.033H78.2474V11.7037H82.8757C84.9265 11.7037 86.0905 13.0744 86.0905 14.8088C86.0905 16.4313 85.1066 17.2985 84.2475 17.6062L86.132 21.033H83.4022ZM83.6655 14.7808C83.6655 14.1374 83.1389 13.7318 82.5154 13.7318H80.6308V15.8298H82.5154C83.1389 15.8298 83.6655 15.4242 83.6655 14.7808Z" fill="#454655"/>
<path id="Shape_13" d="M20.7551 15.75C22.3078 15.7502 23.5715 17.0726 23.5715 18.6973V20.0928H24.0159C24.5068 20.0928 24.9053 20.5098 24.9055 21.0234V24.7471C24.9053 25.2607 24.5068 25.6777 24.0159 25.6777H17.4934C17.0025 25.6777 16.604 25.2607 16.6038 24.7471V21.0234C16.604 20.5098 17.0025 20.0928 17.4934 20.0928H17.9377V18.6973C17.9377 17.0725 19.2022 15.75 20.7551 15.75ZM20.7551 17.3008C20.0194 17.3008 19.4202 17.9275 19.4202 18.6973V20.0928H22.0891V18.6973C22.0891 17.9277 21.4906 17.301 20.7551 17.3008Z" fill="white"/>
<path id="Compliant" d="M49.0696 30.208C49.0696 29.664 49.1949 29.176 49.4456 28.744C49.7016 28.312 50.0456 27.976 50.4776 27.736C50.9149 27.4907 51.3922 27.368 51.9096 27.368C52.5016 27.368 53.0269 27.5147 53.4856 27.808C53.9496 28.096 54.2856 28.5067 54.4936 29.04H53.3976C53.2536 28.7467 53.0536 28.528 52.7976 28.384C52.5416 28.24 52.2456 28.168 51.9096 28.168C51.5416 28.168 51.2136 28.2507 50.9256 28.416C50.6376 28.5813 50.4109 28.8187 50.2456 29.128C50.0856 29.4373 50.0056 29.7973 50.0056 30.208C50.0056 30.6187 50.0856 30.9787 50.2456 31.288C50.4109 31.5973 50.6376 31.8373 50.9256 32.008C51.2136 32.1733 51.5416 32.256 51.9096 32.256C52.2456 32.256 52.5416 32.184 52.7976 32.04C53.0536 31.896 53.2536 31.6773 53.3976 31.384H54.4936C54.2856 31.9173 53.9496 32.328 53.4856 32.616C53.0269 32.904 52.5016 33.048 51.9096 33.048C51.3869 33.048 50.9096 32.928 50.4776 32.688C50.0456 32.4427 49.7016 32.104 49.4456 31.672C49.1949 31.24 49.0696 30.752 49.0696 30.208ZM58.2971 33.056C57.7797 33.056 57.3024 32.936 56.8651 32.696C56.4331 32.4507 56.0891 32.112 55.8331 31.68C55.5824 31.2427 55.4571 30.752 55.4571 30.208C55.4571 29.664 55.5824 29.176 55.8331 28.744C56.0891 28.312 56.4331 27.976 56.8651 27.736C57.3024 27.4907 57.7797 27.368 58.2971 27.368C58.8197 27.368 59.2971 27.4907 59.7291 27.736C60.1664 27.976 60.5104 28.312 60.7611 28.744C61.0117 29.176 61.1371 29.664 61.1371 30.208C61.1371 30.752 61.0117 31.2427 60.7611 31.68C60.5104 32.112 60.1664 32.4507 59.7291 32.696C59.2971 32.936 58.8197 33.056 58.2971 33.056ZM58.2971 32.264C58.6651 32.264 58.9931 32.1813 59.2811 32.016C59.5691 31.8453 59.7931 31.6053 59.9531 31.296C60.1184 30.9813 60.2011 30.6187 60.2011 30.208C60.2011 29.7973 60.1184 29.4373 59.9531 29.128C59.7931 28.8187 59.5691 28.5813 59.2811 28.416C58.9931 28.2507 58.6651 28.168 58.2971 28.168C57.9291 28.168 57.6011 28.2507 57.3131 28.416C57.0251 28.5813 56.7984 28.8187 56.6331 29.128C56.4731 29.4373 56.3931 29.7973 56.3931 30.208C56.3931 30.6187 56.4731 30.9813 56.6331 31.296C56.7984 31.6053 57.0251 31.8453 57.3131 32.016C57.6011 32.1813 57.9291 32.264 58.2971 32.264ZM68.0905 27.44V33H67.1785V29.192L65.4825 33H64.8505L63.1465 29.192V33H62.2345V27.44H63.2185L65.1705 31.8L67.1145 27.44H68.0905ZM73.3772 29.096C73.3772 29.3787 73.3105 29.6453 73.1772 29.896C73.0439 30.1467 72.8305 30.352 72.5372 30.512C72.2439 30.6667 71.8679 30.744 71.4092 30.744H70.4012V33H69.4892V27.44H71.4092C71.8359 27.44 72.1959 27.5147 72.4892 27.664C72.7879 27.808 73.0092 28.0053 73.1532 28.256C73.3025 28.5067 73.3772 28.7867 73.3772 29.096ZM71.4092 30C71.7559 30 72.0145 29.9227 72.1852 29.768C72.3559 29.608 72.4412 29.384 72.4412 29.096C72.4412 28.488 72.0972 28.184 71.4092 28.184H70.4012V30H71.4092ZM75.359 32.264H77.239V33H74.447V27.44H75.359V32.264ZM79.1137 27.44V33H78.2017V27.44H79.1137ZM83.8631 31.864H81.5351L81.1351 33H80.1831L82.1751 27.432H83.2311L85.2231 33H84.2631L83.8631 31.864ZM83.6071 31.12L82.7031 28.536L81.7911 31.12H83.6071ZM90.8572 33H89.9452L87.2012 28.848V33H86.2892V27.432H87.2012L89.9452 31.576V27.432H90.8572V33ZM95.8468 27.44V28.184H94.3668V33H93.4548V28.184H91.9668V27.44H95.8468Z" fill="#454655"/>
</g>
<defs>
<clipPath id="clip0_422_1062">
<rect width="110" height="42" fill="white"/>
</clipPath>
</defs>
</svg>
