<svg width="825" height="207" viewBox="0 0 825 207" fill="none" xmlns="http://www.w3.org/2000/svg">
<path d="M286.151 161.054H270.551V120.404C270.551 109.454 264.251 100.304 253.301 100.304C242.351 100.304 235.451 109.454 235.451 120.404V161.054H220.001V86.9537H234.401L235.451 96.8537C239.651 88.7537 248.351 85.7537 256.151 85.7537C265.601 85.7537 275.201 89.6537 279.401 100.604C285.401 89.6537 294.701 85.9037 304.751 85.9037C325.151 85.9037 336.101 98.8037 336.101 120.104V161.054H320.501V120.104C320.501 109.154 315.101 100.454 304.151 100.454C293.201 100.454 286.151 109.454 286.151 120.404V161.054ZM415.035 98.8037L415.485 87.1037H430.485C430.485 111.704 430.485 136.454 430.485 161.054H415.785L415.035 149.054C410.085 158.504 398.685 163.004 389.535 163.004C367.935 163.154 351.585 149.204 351.585 124.004C351.585 99.2537 368.535 85.4537 389.835 85.4537C400.335 85.4537 410.385 90.4037 415.035 98.8037ZM391.035 99.5537C377.835 99.5537 367.035 108.854 367.035 124.004C367.035 139.304 377.835 148.604 391.035 148.604C422.985 148.604 422.985 99.5537 391.035 99.5537ZM466.896 86.8037V161.054H451.446V86.8037H466.896ZM449.646 65.3537C449.646 78.1037 468.846 78.1037 468.846 65.3537C468.846 52.7537 449.646 52.7537 449.646 65.3537ZM488.521 56.2037H503.971V161.054H488.521V56.2037ZM548.967 161.054H533.367V101.654H519.267V88.0037H533.367V82.6037C533.367 64.1537 544.917 54.5537 560.067 54.5537C566.367 54.5537 572.667 56.6537 578.217 60.4037L572.217 71.9537C568.317 69.4037 564.867 68.0537 560.967 68.0537C553.917 68.0537 548.967 72.7037 548.967 82.6037V88.0037H571.317V101.654H548.967V161.054ZM584.615 56.2037H600.065V161.054H584.615V56.2037ZM655.111 85.6037C677.911 85.6037 693.511 102.404 693.511 124.154C693.511 146.054 678.361 162.554 655.111 162.554C632.011 162.554 617.011 146.054 617.011 124.154C617.011 102.404 632.161 85.6037 655.111 85.6037ZM655.111 99.8537C641.011 99.8537 632.461 111.104 632.461 124.154C632.461 137.354 641.011 148.154 655.111 148.154C669.361 148.154 677.911 137.354 677.911 124.154C677.911 111.104 668.611 99.8537 655.111 99.8537ZM754.001 86.9537H767.351L785.051 145.154L803.351 86.9537H820.601L794.651 161.354H776.651L767.951 136.754L760.751 110.954L753.401 136.754L744.701 161.354H726.701L700.601 86.9537H718.001L736.301 145.154L754.001 86.9537Z" fill="#454655"/>
<path d="M50.7302 70.79L27.6959 93.8244" stroke="#4B7FFF" stroke-width="14.4619" stroke-linecap="round" stroke-linejoin="round"/>
<path d="M82.3546 120.976L50.0401 153.29" stroke="#4B7FFF" stroke-width="14.4619" stroke-linecap="round" stroke-linejoin="round"/>
<path d="M60.0618 102.364L36.8229 125.603" stroke="#4B7FFF" stroke-width="14.4619" stroke-linecap="round" stroke-linejoin="round"/>
<path d="M101.043 143.191L81.5365 162.698" stroke="#4B7FFF" stroke-width="14.4619" stroke-linecap="round" stroke-linejoin="round"/>
<path d="M132.718 152.419L105.44 179.697" stroke="#4B7FFF" stroke-width="14.4619" stroke-linecap="round" stroke-linejoin="round"/>
<path d="M44.6202 86.8711L34.3941 97.0972L34.5219 97.225C37.3341 94.4129 41.9359 94.4129 44.7481 97.225C47.5602 100.037 47.5602 104.639 44.7481 107.451L44.8759 107.579L55.102 97.3529L44.6202 86.8711Z" fill="#4B7FFF"/>
<path d="M60.5985 111.081L50.3724 121.307L50.8581 121.793C53.6703 118.981 58.2721 118.981 61.0842 121.793C63.8964 124.605 63.8964 129.207 61.0843 132.019L61.9023 132.837L72.1285 122.611L60.5985 111.081Z" fill="#4B7FFF"/>
<path d="M79.9769 130.459L69.7508 140.685L71.3103 142.245C74.1225 139.432 78.7242 139.432 81.5364 142.245C84.3486 145.057 84.3486 149.659 81.5364 152.471L82.738 153.672L92.9641 143.446L79.9769 130.459Z" fill="#4B7FFF"/>
<path d="M105.466 147.717L95.2395 157.943L95.8786 158.582C98.6908 155.77 103.293 155.77 106.105 158.582C108.917 161.394 108.917 165.996 106.105 168.808L106.514 169.217L116.74 158.991L105.466 147.717Z" fill="#4B7FFF"/>
<path d="M145.527 36.9928L57.3774 66.5974C48.6852 69.5119 44.5947 78.5109 46.6911 86.4361C47.7393 90.3987 50.6793 93.5944 54.4374 95.1539L87.0587 108.857C90.3822 110.237 93.041 112.896 94.4215 116.22L108.073 148.636C109.863 152.88 113.621 156.025 118.172 156.843C125.739 158.223 133.971 154.082 136.707 145.875L166.311 57.7263C170.632 44.8158 158.411 32.5956 145.501 36.9161L145.552 36.9672L145.527 36.9928Z" stroke="#4B7FFF" stroke-width="14.4619" stroke-miterlimit="10"/>
<path d="M89.6242 102.657L118.942 81.8033C120.68 80.5717 122.606 82.4976 121.374 84.236L100.52 113.554C99.8239 114.554 98.4721 114.74 97.6865 113.955L89.1975 105.466C88.4373 104.706 88.6235 103.354 89.5988 102.632L89.6242 102.657Z" fill="#4B7FFF"/>
<path d="M67.9613 176.272L62.3625 181.871" stroke="#4B7FFF" stroke-width="14.4619" stroke-linecap="round" stroke-linejoin="round"/>
<path d="M14.3302 107.179L7.29409 114.215" stroke="#4B7FFF" stroke-width="14.4619" stroke-linecap="round" stroke-linejoin="round"/>
<path d="M103.369 133.041L69.5719 99.2441L58.1698 110.646L91.9671 144.444L103.369 133.041Z" fill="#4B7FFF"/>
</svg>
