<svg xmlns="http://www.w3.org/2000/svg" viewBox="0 0 789.27 502.67"><defs><style>.cls-1{fill:blue;}.cls-2{fill:none;}</style></defs><g id="Logo"><path class="cls-1" d="M280.57,60.62V180.2H251.5L202.13,105V180.2H173.41V60.62h31.3L252,132.37V60.62Zm102.08,0V87H350.54V180.2H322.69V87H290.26V60.62Zm96.39,0V87.15H422.28v19.66H479v26.54H422.28v20.31H479V180.2H392.35V60.62ZM571.22,137a38.61,38.61,0,0,0,14.88-14.5,40.29,40.29,0,0,0,5.42-20.73,41.14,41.14,0,0,0-3.1-16,36.71,36.71,0,0,0-9.11-13,44.55,44.55,0,0,0-14.8-8.85,57.37,57.37,0,0,0-20.12-3.27h-54V180.2h29.93V144.33h23.56l17.72,35.87h33Zm-14.88-23.18q-4.56,4.66-14.19,4.66H520.31V86.66h21.84q9.47,0,14.11,4.18t4.64,11.55A15.7,15.7,0,0,1,556.34,113.78Zm-388.6,77.76V311.13H138.67L89.31,235.94v75.19H60.58V191.54H91.89l47.3,71.76V191.54Zm98,0v26.54H209v19.66h56.76v26.54H209v20.31h56.76v26.54H179.08V191.54Zm112.65,0V311.13h-30.1v-46H307.21v46h-30.1V191.54h30.1v45.38h41.11V191.54Zm136.05,0V311.13H485.23V235.28L452,277.71l-32.85-42.26v75.68H389.76V191.54h28.56l33.88,44.73,34.92-44.73Zm98,0v26.54H555.74v19.66H612.5v26.54H555.74v20.31H612.5v26.54H525.81V191.54Zm92.77,76.34a38.61,38.61,0,0,0,14.88-14.5,40.22,40.22,0,0,0,5.41-20.72,41.28,41.28,0,0,0-3.09-16,36.87,36.87,0,0,0-9.12-13,44.23,44.23,0,0,0-14.79-8.85,57.42,57.42,0,0,0-20.13-3.28h-54V311.13h29.93V275.25h23.57l17.72,35.88h33ZM690.39,244.7q-4.56,4.67-14.19,4.67H654.35V217.59H676.2q9.45,0,14.1,4.18T695,233.32A15.66,15.66,0,0,1,690.39,244.7ZM153,322.47v26.37H120.87v93.22H93V348.84H60.58V322.47Zm83.06,118a69.23,69.23,0,0,1-42,0,43.41,43.41,0,0,1-15.91-9.5,42.59,42.59,0,0,1-10.15-15.24A55,55,0,0,1,164.32,395V322.47h30.44V395q0,10,5.42,15.4t14.71,5.41q9.11,0,14.79-5.41t5.67-15.4V322.47H265.8V395a55,55,0,0,1-3.61,20.64A42.59,42.59,0,0,1,252,430.92a43.39,43.39,0,0,1-16,9.5M401.82,322.47V442.06H372.58V366.21l-33.2,42.43-32.85-42.27v75.69H277.11V322.47h28.56l33.88,44.72,34.92-44.72ZM91,133.19V60.62H60.58v72.57a55.32,55.32,0,0,0,3.61,20.64,42.68,42.68,0,0,0,10.15,15.23,43.41,43.41,0,0,0,16,9.51,63.91,63.91,0,0,0,21,3.27V154q-9-.06-14.62-5.4T91,133.19Zm71-72.57H131.62v68.46h30.45Zm-3.61,93.5a42.72,42.72,0,0,0-10.15-15.24,43.39,43.39,0,0,0-16-9.5,63.92,63.92,0,0,0-21-3.28V154q9,0,14.63,5.4t5.67,15.4v5.44h30.45v-5.44A55.25,55.25,0,0,0,158.46,154.12Z"/></g><g id="Schutzzone"><rect class="cls-2" x="-0.03" width="789.3" height="502.67"/></g></svg>